<svg id="Grupo_4600" data-name="Grupo 4600" xmlns="http://www.w3.org/2000/svg" width="135" height="40" viewBox="0 0 135 40">
  <g id="Grupo_4598" data-name="Grupo 4598">
    <path id="Trazado_2030" data-name="Trazado 2030" d="M124.249,0H10.757c-.414,0-.822,0-1.235,0C9.176,0,8.834.01,8.485.015A16.772,16.772,0,0,0,6.224.191,8.208,8.208,0,0,0,4.08.818,7.294,7.294,0,0,0,2.254,2,6.352,6.352,0,0,0,.924,3.618a6.093,6.093,0,0,0-.705,1.9,11.559,11.559,0,0,0-.2,2c-.01.307-.012.614-.017.921V31.559c.006.31.007.611.017.922a11.558,11.558,0,0,0,.2,2,6.08,6.08,0,0,0,.705,1.9A6.305,6.305,0,0,0,2.254,38,7.109,7.109,0,0,0,4.08,39.18a8.249,8.249,0,0,0,2.144.631,17.076,17.076,0,0,0,2.261.177c.349.007.691.011,1.037.011.413,0,.821,0,1.235,0H124.249c.405,0,.817,0,1.223,0,.344,0,.7,0,1.04-.011a16.853,16.853,0,0,0,2.256-.177,8.379,8.379,0,0,0,2.153-.631A7.111,7.111,0,0,0,132.746,38a6.5,6.5,0,0,0,1.333-1.614,6.091,6.091,0,0,0,.7-1.9,12.019,12.019,0,0,0,.209-2c0-.311,0-.611,0-.922.009-.363.009-.725.009-1.094V9.536c0-.366,0-.729-.009-1.092,0-.307,0-.614,0-.921a12.017,12.017,0,0,0-.209-2,6.1,6.1,0,0,0-.7-1.9,6.938,6.938,0,0,0-3.157-2.8,8.337,8.337,0,0,0-2.153-.627,16.555,16.555,0,0,0-2.256-.177c-.344,0-.7-.011-1.04-.013-.405,0-.817,0-1.223,0Z" transform="translate(0 0)" fill="#a6a6a6"/>
    <path id="Trazado_2031" data-name="Trazado 2031" d="M9.43,39.125c-.344,0-.68,0-1.022-.011A16.158,16.158,0,0,1,6.3,38.951,7.267,7.267,0,0,1,4.423,38.4a6.137,6.137,0,0,1-1.579-1.017,5.407,5.407,0,0,1-1.153-1.4,5.275,5.275,0,0,1-.614-1.657A11.025,11.025,0,0,1,.89,32.458c-.007-.211-.017-.913-.017-.913V8.444s.01-.691.017-.895a10.986,10.986,0,0,1,.187-1.872,5.305,5.305,0,0,1,.614-1.662,5.455,5.455,0,0,1,1.147-1.4A6.316,6.316,0,0,1,4.423,1.6a7.194,7.194,0,0,1,1.868-.544A16.028,16.028,0,0,1,8.41.887L9.43.875H125.564L126.6.888a15.772,15.772,0,0,1,2.1.163,7.338,7.338,0,0,1,1.888.548,6.007,6.007,0,0,1,2.729,2.42,5.309,5.309,0,0,1,.6,1.649,11.543,11.543,0,0,1,.2,1.887c0,.283,0,.587,0,.89.009.375.009.732.009,1.092V30.465c0,.363,0,.718-.009,1.075,0,.325,0,.623,0,.93a11.311,11.311,0,0,1-.193,1.853,5.286,5.286,0,0,1-.61,1.67,5.573,5.573,0,0,1-1.148,1.386,6.141,6.141,0,0,1-1.581,1.023,7.24,7.24,0,0,1-1.885.55,15.973,15.973,0,0,1-2.112.163c-.331.007-.678.011-1.014.011l-1.225,0Z" transform="translate(0 0)"/>
  </g>
  <g id="_Group_" data-name="&lt;Group&gt;" transform="translate(9.972 8.72)">
    <path id="_Path_" data-name="&lt;Path&gt;" d="M24.769,20.3a4.949,4.949,0,0,1,2.357-4.152,5.066,5.066,0,0,0-3.991-2.158c-1.679-.176-3.307,1-4.163,1-.872,0-2.19-.987-3.608-.958a5.315,5.315,0,0,0-4.473,2.728c-1.934,3.348-.491,8.269,1.361,10.976.927,1.325,2.01,2.806,3.428,2.753,1.387-.058,1.905-.884,3.579-.884,1.659,0,2.145.884,3.591.851,1.488-.024,2.426-1.331,3.321-2.669A10.962,10.962,0,0,0,27.688,24.7a4.782,4.782,0,0,1-2.919-4.4Z" transform="translate(-9.972 -8.72)" fill="#fff"/>
    <path id="_Path_2" data-name="&lt;Path&gt;" d="M22.037,12.211A4.872,4.872,0,0,0,23.152,8.72a4.957,4.957,0,0,0-3.208,1.66A4.636,4.636,0,0,0,18.8,13.741a4.1,4.1,0,0,0,3.237-1.53Z" transform="translate(-9.972 -8.72)" fill="#fff"/>
  </g>
  <g id="Grupo_4606" data-name="Grupo 4606" transform="translate(-14)">
    <g id="Grupo_4599" data-name="Grupo 4599" transform="translate(49.763 17.871)">
      <path id="Trazado_2032" data-name="Trazado 2032" d="M42.3,27.14H37.569L36.432,30.5h-2l4.483-12.418h2.083L45.477,30.5H43.438Zm-4.243-1.549h3.752l-1.85-5.447H39.91Z" transform="translate(-34.427 -17.871)" fill="#fff"/>
      <path id="Trazado_2033" data-name="Trazado 2033" d="M55.16,25.97c0,2.813-1.506,4.621-3.778,4.621a3.069,3.069,0,0,1-2.849-1.584H48.49v4.484H46.631V21.442h1.8v1.506h.034a3.212,3.212,0,0,1,2.883-1.6C53.645,21.348,55.16,23.164,55.16,25.97Zm-1.91,0c0-1.833-.947-3.038-2.393-3.038-1.42,0-2.375,1.23-2.375,3.038,0,1.824.955,3.046,2.375,3.046,1.445,0,2.393-1.2,2.393-3.046Z" transform="translate(-34.427 -17.871)" fill="#fff"/>
      <path id="Trazado_2034" data-name="Trazado 2034" d="M65.124,25.97c0,2.813-1.506,4.621-3.778,4.621A3.069,3.069,0,0,1,58.5,29.007h-.043v4.484H56.6V21.442h1.8v1.506h.034a3.212,3.212,0,0,1,2.883-1.6C63.61,21.348,65.124,23.164,65.124,25.97Zm-1.91,0c0-1.833-.947-3.038-2.393-3.038-1.42,0-2.375,1.23-2.375,3.038,0,1.824.955,3.046,2.375,3.046,1.445,0,2.393-1.2,2.393-3.046Z" transform="translate(-34.427 -17.871)" fill="#fff"/>
      <path id="Trazado_2035" data-name="Trazado 2035" d="M71.711,27.036c.138,1.231,1.334,2.04,2.969,2.04,1.566,0,2.693-.809,2.693-1.919,0-.964-.68-1.541-2.289-1.937l-1.609-.388c-2.28-.551-3.339-1.617-3.339-3.348,0-2.143,1.867-3.614,4.519-3.614,2.624,0,4.423,1.472,4.483,3.614H77.261c-.112-1.239-1.137-1.987-2.634-1.987s-2.521.757-2.521,1.858c0,.878.654,1.395,2.255,1.79l1.368.336c2.548.6,3.606,1.626,3.606,3.442,0,2.323-1.851,3.778-4.794,3.778-2.754,0-4.613-1.421-4.733-3.667Z" transform="translate(-34.427 -17.871)" fill="#fff"/>
      <path id="Trazado_2036" data-name="Trazado 2036" d="M83.346,19.3v2.143h1.722v1.472H83.346v4.991c0,.775.345,1.137,1.1,1.137A5.807,5.807,0,0,0,85.059,29v1.463a5.1,5.1,0,0,1-1.032.086c-1.833,0-2.548-.688-2.548-2.444V22.914H80.163V21.442h1.316V19.3Z" transform="translate(-34.427 -17.871)" fill="#fff"/>
      <path id="Trazado_2037" data-name="Trazado 2037" d="M86.065,25.97c0-2.849,1.678-4.639,4.294-4.639s4.295,1.79,4.295,4.639-1.661,4.639-4.295,4.639S86.065,28.826,86.065,25.97Zm6.7,0c0-1.954-.9-3.107-2.4-3.107s-2.4,1.162-2.4,3.107c0,1.962.895,3.106,2.4,3.106s2.4-1.145,2.4-3.106Z" transform="translate(-34.427 -17.871)" fill="#fff"/>
      <path id="Trazado_2038" data-name="Trazado 2038" d="M96.186,21.442h1.772v1.541H98a2.159,2.159,0,0,1,2.178-1.636,2.866,2.866,0,0,1,.637.069v1.738a2.6,2.6,0,0,0-.835-.112,1.873,1.873,0,0,0-1.937,2.083V30.5H96.186Z" transform="translate(-34.427 -17.871)" fill="#fff"/>
      <path id="Trazado_2039" data-name="Trazado 2039" d="M109.384,27.837c-.25,1.644-1.851,2.771-3.9,2.771-2.634,0-4.269-1.765-4.269-4.6s1.644-4.682,4.19-4.682c2.5,0,4.08,1.721,4.08,4.466v.637h-6.395v.112a2.358,2.358,0,0,0,2.436,2.564,2.048,2.048,0,0,0,2.091-1.273Zm-6.282-2.7h4.526a2.177,2.177,0,0,0-2.221-2.3,2.292,2.292,0,0,0-2.305,2.3Z" transform="translate(-34.427 -17.871)" fill="#fff"/>
    </g>
    <g id="_Group_2" data-name="&lt;Group&gt;" transform="translate(51.007 8.02)">
      <g id="Grupo_4601" data-name="Grupo 4601">
        <path id="Trazado_2040" data-name="Trazado 2040" d="M37.826,8.731A2.64,2.64,0,0,1,40.634,11.7c0,1.906-1.03,3-2.808,3H35.671V8.731ZM36.6,13.854h1.125a1.876,1.876,0,0,0,1.968-2.146,1.881,1.881,0,0,0-1.968-2.134H36.6Z" transform="translate(-35.671 -8.02)" fill="#fff"/>
        <path id="Trazado_2041" data-name="Trazado 2041" d="M45.712,13.482a1.828,1.828,0,0,1-1.951,1.3,2.045,2.045,0,0,1-2.08-2.324,2.077,2.077,0,0,1,2.076-2.353c1.253,0,2.009.856,2.009,2.27v.31h-3.18v.05a1.19,1.19,0,0,0,1.2,1.29,1.079,1.079,0,0,0,1.071-.546Zm-3.126-1.451H44.86a1.086,1.086,0,0,0-1.108-1.167,1.152,1.152,0,0,0-1.166,1.167Z" transform="translate(-35.671 -8.02)" fill="#fff"/>
        <path id="Trazado_2042" data-name="Trazado 2042" d="M48.6,10.108c1.013,0,1.675.471,1.762,1.265h-.853c-.082-.331-.405-.542-.909-.542s-.873.235-.873.587c0,.269.228.438.716.55l.748.173c.856.2,1.258.567,1.258,1.229,0,.848-.79,1.414-1.865,1.414s-1.77-.484-1.849-1.282h.89a.914.914,0,0,0,.979.562c.554,0,.947-.248.947-.608,0-.269-.211-.442-.662-.55l-.785-.182c-.856-.2-1.253-.587-1.253-1.257C46.855,10.67,47.587,10.108,48.6,10.108Z" transform="translate(-35.671 -8.02)" fill="#fff"/>
        <path id="Trazado_2043" data-name="Trazado 2043" d="M54.6,11.667a1,1,0,0,0-1.063-.765c-.744,0-1.2.57-1.2,1.53,0,.976.459,1.559,1.2,1.559a.979.979,0,0,0,1.063-.74h.864a1.762,1.762,0,0,1-1.923,1.534,2.068,2.068,0,0,1-2.113-2.353,2.053,2.053,0,0,1,2.108-2.324,1.777,1.777,0,0,1,1.928,1.559Z" transform="translate(-35.671 -8.02)" fill="#fff"/>
        <path id="Trazado_2044" data-name="Trazado 2044" d="M56.345,13.424c0-.811.6-1.278,1.675-1.344l1.22-.07v-.389c0-.476-.314-.744-.922-.744-.5,0-.84.182-.938.5h-.86c.091-.773.818-1.27,1.84-1.27,1.129,0,1.766.562,1.766,1.513V14.7h-.855v-.633H59.2a1.515,1.515,0,0,1-1.353.707,1.36,1.36,0,0,1-1.5-1.348Zm2.895-.385v-.376l-1.1.07c-.62.042-.9.252-.9.649s.352.641.835.641a1.061,1.061,0,0,0,1.166-.984Zm-1.414-3.6L58.863,8.02h1.042L58.743,9.442Z" transform="translate(-35.671 -8.02)" fill="#fff"/>
        <path id="Trazado_2045" data-name="Trazado 2045" d="M61.516,10.195h.855v.69h.066a1.221,1.221,0,0,1,1.216-.765,1.868,1.868,0,0,1,.4.037v.877a2.434,2.434,0,0,0-.5-.054A1.055,1.055,0,0,0,62.4,12.039V14.7h-.889Z" transform="translate(-35.671 -8.02)" fill="#fff"/>
        <path id="Trazado_2046" data-name="Trazado 2046" d="M64.866,15.148h.91c.075.327.451.538,1.051.538.74,0,1.179-.352,1.179-.947v-.864h-.066a1.514,1.514,0,0,1-1.39.756c-1.149,0-1.861-.889-1.861-2.237,0-1.373.719-2.274,1.87-2.274a1.56,1.56,0,0,1,1.414.794h.07v-.719h.852v4.54c0,1.03-.807,1.683-2.08,1.683C65.689,16.418,64.961,15.914,64.866,15.148Zm3.156-2.758c0-.9-.464-1.472-1.221-1.472s-1.194.575-1.194,1.472.43,1.472,1.194,1.472,1.221-.57,1.221-1.472Z" transform="translate(-35.671 -8.02)" fill="#fff"/>
        <path id="Trazado_2047" data-name="Trazado 2047" d="M70.053,13.424c0-.811.6-1.278,1.675-1.344l1.22-.07v-.389c0-.476-.314-.744-.922-.744-.5,0-.84.182-.938.5h-.86c.091-.773.818-1.27,1.84-1.27,1.129,0,1.766.562,1.766,1.513V14.7h-.855v-.633h-.07a1.515,1.515,0,0,1-1.353.707,1.36,1.36,0,0,1-1.5-1.348Zm2.895-.385v-.376l-1.1.07c-.62.042-.9.252-.9.649s.352.641.835.641a1.061,1.061,0,0,0,1.166-.984Z" transform="translate(-35.671 -8.02)" fill="#fff"/>
        <path id="Trazado_2048" data-name="Trazado 2048" d="M75.265,8.437h.889V14.7h-.889Z" transform="translate(-35.671 -8.02)" fill="#fff"/>
        <path id="Trazado_2049" data-name="Trazado 2049" d="M77.389,12.444a2.133,2.133,0,1,1,4.247,0,2.134,2.134,0,1,1-4.247,0Zm3.333,0c0-.976-.438-1.547-1.208-1.547s-1.207.571-1.207,1.547.435,1.55,1.207,1.55S80.722,13.424,80.722,12.444Z" transform="translate(-35.671 -8.02)" fill="#fff"/>
        <path id="Trazado_2050" data-name="Trazado 2050" d="M89.08,13.482a1.828,1.828,0,0,1-1.951,1.3,2.045,2.045,0,0,1-2.08-2.324,2.077,2.077,0,0,1,2.076-2.353c1.253,0,2.009.856,2.009,2.27v.31h-3.18v.05a1.19,1.19,0,0,0,1.2,1.29,1.079,1.079,0,0,0,1.071-.546Zm-3.126-1.451h2.274a1.086,1.086,0,0,0-1.108-1.167,1.152,1.152,0,0,0-1.166,1.167Z" transform="translate(-35.671 -8.02)" fill="#fff"/>
        <path id="Trazado_2051" data-name="Trazado 2051" d="M90.327,10.195h.855v.715h.066a1.348,1.348,0,0,1,1.344-.8,1.465,1.465,0,0,1,1.559,1.675V14.7h-.889V12.006c0-.724-.314-1.083-.972-1.083a1.033,1.033,0,0,0-1.075,1.141V14.7h-.889Z" transform="translate(-35.671 -8.02)" fill="#fff"/>
        <path id="Trazado_2052" data-name="Trazado 2052" d="M101.776,13.482a1.828,1.828,0,0,1-1.951,1.3,2.045,2.045,0,0,1-2.08-2.324,2.077,2.077,0,0,1,2.076-2.353c1.253,0,2.009.856,2.009,2.27v.31H98.65v.05a1.19,1.19,0,0,0,1.2,1.29,1.079,1.079,0,0,0,1.071-.546ZM98.65,12.031h2.274a1.086,1.086,0,0,0-1.108-1.167,1.152,1.152,0,0,0-1.166,1.167Z" transform="translate(-35.671 -8.02)" fill="#fff"/>
        <path id="Trazado_2053" data-name="Trazado 2053" d="M103.064,8.437h.889V14.7h-.889Z" transform="translate(-35.671 -8.02)" fill="#fff"/>
      </g>
    </g>
  </g>
</svg>
