<svg xmlns="http://www.w3.org/2000/svg" width="33.074" height="25.223" viewBox="0 0 33.074 25.223">
  <g id="Youtube_1" data-name="Youtube 1" transform="translate(1.5 1.5)">
    <g id="_Group_" data-name="&lt;Group&gt;" transform="translate(0 0)">
      <g id="_Group_2" data-name="&lt;Group&gt;" transform="translate(11.777 5.217)">
        <path id="_Path_" data-name="&lt;Path&gt;" d="M9.5,7.5V19.237l9.129-5.869Z" transform="translate(-9.5 -7.5)" fill="none" stroke="#98c222" stroke-linecap="round" stroke-linejoin="round" stroke-width="3"/>
      </g>
      <path id="_Path_2" data-name="&lt;Path&gt;" d="M3.939,4.374l2.439-.313A73.32,73.32,0,0,1,15.507,3.5h0a73.319,73.319,0,0,1,9.129.561l2.478.313a3.912,3.912,0,0,1,3.43,3.912v12.65a3.912,3.912,0,0,1-3.43,3.912l-2.478.313a73.32,73.32,0,0,1-9.129.561h0a73.322,73.322,0,0,1-9.129-.561L3.9,24.849A3.912,3.912,0,0,1,.47,20.937V8.26A3.912,3.912,0,0,1,3.938,4.374Z" transform="translate(-0.47 -3.5)" fill="none" stroke="#98c222" stroke-linecap="round" stroke-linejoin="round" stroke-width="3"/>
    </g>
  </g>
</svg>
