<svg id="Grupo_3434" data-name="Grupo 3434" xmlns="http://www.w3.org/2000/svg" width="20.262" height="20.262" viewBox="0 0 20.262 20.262">
  <path id="Trazado_1747" data-name="Trazado 1747" d="M3.844,8.437A.844.844,0,0,1,3,7.593V5.128A2.13,2.13,0,0,1,5.128,3H7.593a.844.844,0,1,1,0,1.689H5.128a.44.44,0,0,0-.439.44V7.593A.844.844,0,0,1,3.844,8.437Zm18.574.008a.844.844,0,0,1-.844-.844V5.128a.441.441,0,0,0-.44-.44H18.669a.844.844,0,1,1,0-1.689h2.465a2.13,2.13,0,0,1,2.128,2.128V7.6a.844.844,0,0,1-.844.844ZM7.593,23.262H5.128A2.13,2.13,0,0,1,3,21.134V18.67a.844.844,0,1,1,1.689,0v2.464a.44.44,0,0,0,.439.44H7.593a.844.844,0,0,1,0,1.689Zm13.541,0H18.669a.844.844,0,0,1,0-1.689h2.465a.441.441,0,0,0,.44-.44V18.66a.844.844,0,0,1,1.689,0v2.474A2.13,2.13,0,0,1,21.134,23.262ZM20.5,9.72v.385H5.372V9.721a2,2,0,0,1,2-2H18.492a2.007,2.007,0,0,1,2.009,2ZM5.372,11.8v4.745a2,2,0,0,0,2,2H18.492a2.007,2.007,0,0,0,2.009-2V11.8Zm4.466,4.373a.562.562,0,0,1-.557.557H7.855a.555.555,0,0,1-.549-.557V14.735a.548.548,0,0,1,.549-.549H9.281a.555.555,0,0,1,.557.549Z" transform="translate(-3 -3)" fill="#fff"/>
</svg>
