<svg xmlns="http://www.w3.org/2000/svg" width="207.053" height="50.553" viewBox="0 0 207.053 50.553">
  <g id="logo-benefits" transform="translate(-125 989)">
    <g id="Grupo_4519" data-name="Grupo 4519" transform="translate(190.203 -964.885)">
      <path id="Trazado_1903" data-name="Trazado 1903" d="M251.184,97.517a4.169,4.169,0,0,0,.6-.6,3.6,3.6,0,0,0,.766-2.379,3.528,3.528,0,0,0-1.367-2.9,5.724,5.724,0,0,0-3.609-1.039H242.9l.137,1.258h.711a.882.882,0,0,1,.574.219.613.613,0,0,1,.219.519V104a.729.729,0,0,1-.246.547.7.7,0,0,1-.547.219h-.711l-.137,1.258h5.6a5.751,5.751,0,0,0,3.855-1.176,3.9,3.9,0,0,0,1.449-3.117,4.565,4.565,0,0,0-1.066-3.09,4.938,4.938,0,0,0-1.558-1.121m-1.668-1.2c-.164.164-.355.328-.519.465a1.823,1.823,0,0,1-.574.246c-.246.055-.492.109-.684.137a3.722,3.722,0,0,1-.437.027h-.383V92.3h.574a2.661,2.661,0,0,1,1.859.6,2.322,2.322,0,0,1,.6,1.722,2.425,2.425,0,0,1-.437,1.7m-2.6,7.929V98.42h.191a5.174,5.174,0,0,1,3.226.848,2.362,2.362,0,0,1,.6.875,3.348,3.348,0,0,1,.246,1.34,2.677,2.677,0,0,1-.711,2.051,2.785,2.785,0,0,1-2.051.711Z" transform="translate(-242.9 -89.944)" fill="#666"/>
      <path id="Trazado_1904" data-name="Trazado 1904" d="M322.124,100.3a4.4,4.4,0,0,1-1.176,1.8,3.105,3.105,0,0,1-2,.547h-2.406V97.569H319.5a.467.467,0,0,1,.465.465v.848h1.258V94.588h-1.258v.82a.576.576,0,0,1-.137.355.622.622,0,0,1-.328.164h-2.953V90.6h3.636a.626.626,0,0,1,.465.219.6.6,0,0,1,.191.465v.9H322.1V88.3l-.711.3a5.594,5.594,0,0,1-.957.219,7.5,7.5,0,0,1-1.312.109H312.5l.137,1.258h.711a.681.681,0,0,1,.519.191,1.094,1.094,0,0,1,.273.492v11.456a.787.787,0,0,1-.246.574.7.7,0,0,1-.547.219h-.793v1.258h9.433L323.546,100h-1.312Z" transform="translate(-293.471 -88.273)" fill="#666"/>
      <path id="Trazado_1905" data-name="Trazado 1905" d="M391.737,90.958h.93a.613.613,0,0,1,.519.219.747.747,0,0,1,.219.519v8.858L382.961,89.4h-1.039l.109.93a16.9,16.9,0,0,1,.137,2.16v10.663a.613.613,0,0,1-.219.519.7.7,0,0,1-.519.219h-.93v1.258h5.277v-1.258h-.93a.55.55,0,0,1-.355-.109.705.705,0,0,1-.383-.6V94.267l10.444,11.155h1.012l-.109-.957a18.408,18.408,0,0,1-.137-2.187V91.7a.747.747,0,0,1,.738-.738h.9V89.7h-5.277v1.258Z" transform="translate(-342.879 -89.072)" fill="#666"/>
      <path id="Trazado_1906" data-name="Trazado 1906" d="M479.924,100.3a4.4,4.4,0,0,1-1.176,1.8,3.106,3.106,0,0,1-2,.547h-2.406V97.569H477.3a.467.467,0,0,1,.465.465v.848h1.258V94.588h-1.258v.82a.576.576,0,0,1-.137.355.622.622,0,0,1-.328.164h-2.953V90.6h3.636a.626.626,0,0,1,.465.219.6.6,0,0,1,.191.465v.9H479.9V88.3l-.711.3a5.6,5.6,0,0,1-.957.219,7.5,7.5,0,0,1-1.312.109H470.3l.137,1.258h.711a.681.681,0,0,1,.519.191,1.094,1.094,0,0,1,.273.492v11.456a.787.787,0,0,1-.246.574.7.7,0,0,1-.547.219h-.793v1.258h9.433L481.346,100h-1.285Z" transform="translate(-408.127 -88.273)" fill="#666"/>
      <path id="Trazado_1907" data-name="Trazado 1907" d="M547.229,88.792a7.5,7.5,0,0,1-1.312.109H539.3l.137,1.258h.711a.882.882,0,0,1,.574.219.571.571,0,0,1,.219.437v11.511a.787.787,0,0,1-.246.574.7.7,0,0,1-.547.219h-.793v1.258h5.55v-1.258h-.766a.764.764,0,0,1-.547-.219.7.7,0,0,1-.219-.547V97.6h2.953a.467.467,0,0,1,.465.465v.82h1.258V94.588h-1.258v.82a.368.368,0,0,1-.137.328.622.622,0,0,1-.328.164h-2.953V90.6H547.2a.468.468,0,0,1,.465.492v.82h1.258V88.3l-.711.3c-.164.027-.41.109-.984.191" transform="translate(-458.261 -88.273)" fill="#666"/>
      <path id="Trazado_1908" data-name="Trazado 1908" d="M606.6,91.758h.793a.813.813,0,0,1,.547.219.716.716,0,0,1,.246.519v11.4a.787.787,0,0,1-.246.574.7.7,0,0,1-.547.219H606.6v1.258h5.55V104.69h-.793a.763.763,0,0,1-.547-.219.7.7,0,0,1-.219-.547v-11.4a.729.729,0,0,1,.246-.547.7.7,0,0,1,.547-.219h.793V90.5h-5.55v1.258Z" transform="translate(-507.161 -89.871)" fill="#666"/>
      <path id="Trazado_1909" data-name="Trazado 1909" d="M667.521,88.5c-.027,0-.137.055-.738.191a8.027,8.027,0,0,1-1.558.137H658.28a7.709,7.709,0,0,1-1.312-.109,3.682,3.682,0,0,1-.957-.219l-.711-.3v3.937L656.558,92v-.82a.659.659,0,0,1,.191-.492.616.616,0,0,1,.437-.219h3.39v11.784a.635.635,0,0,1-.246.519.7.7,0,0,1-.547.219h-.793v1.258h5.55v-1.258h-.793a.813.813,0,0,1-.547-.219.716.716,0,0,1-.246-.519V90.5h3.363a.626.626,0,0,1,.465.219.659.659,0,0,1,.191.492v.82l1.258.137V88.2Z" transform="translate(-542.546 -88.2)" fill="#666"/>
      <path id="Trazado_1910" data-name="Trazado 1910" d="M738.1,98.176l-4.047-3.746a1.921,1.921,0,0,1-.109-2.789,1.94,1.94,0,0,1,1.394-.547,2,2,0,0,1,1.367.437,1.412,1.412,0,0,1,.492,1.148V93.2h1.23V89.619h-1.285a9.477,9.477,0,0,0-1.832-.219,3.976,3.976,0,0,0-4.156,4.074,3.8,3.8,0,0,0,1.285,2.871l3.937,3.664a1.925,1.925,0,0,1,.629,1.531,2.1,2.1,0,0,1-.656,1.586,2.443,2.443,0,0,1-1.777.629,2.142,2.142,0,0,1-1.641-.656,2.52,2.52,0,0,1-.629-1.722,2.069,2.069,0,0,1,.027-.41l.055-.574h-1.148l-.109.355a6.122,6.122,0,0,0-.328,1.914,6.288,6.288,0,0,0,.082,1.23l.027.137.109.109a3.83,3.83,0,0,0,1.8.984,8.089,8.089,0,0,0,2.051.3,4.309,4.309,0,0,0,3.172-1.2,4.184,4.184,0,0,0,1.2-3.062,3.69,3.69,0,0,0-1.148-2.98" transform="translate(-597.403 -89.072)" fill="#666"/>
    </g>
    <g id="Grupo_4515" data-name="Grupo 4515" transform="translate(125 -989)">
      <path id="Trazado_1911" data-name="Trazado 1911" d="M5.113,3.964c-.219,0-.355.027-.41.109a.568.568,0,0,0-.109.41V14.9a.452.452,0,0,0,.519.519H9.706a.452.452,0,0,0,.519-.519V11.565H6.972v-3.8h7.82v7.792c0,2.543-1.258,3.828-3.8,3.828H3.8C1.258,19.385,0,18.1,0,15.557V3.828C0,1.285,1.258,0,3.8,0H13.971V3.964Z" fill="#1a1a1a"/>
      <path id="Trazado_1912" data-name="Trazado 1912" d="M76.537,19.385H69.1c-2.543,0-3.8-1.285-3.8-3.828V3.828C65.3,1.285,66.558,0,69.1,0h7.437a3.979,3.979,0,0,1,2.9.957,3.9,3.9,0,0,1,.93,2.871V15.557C80.365,18.1,79.107,19.385,76.537,19.385ZM69.893,4.511V14.873a.452.452,0,0,0,.519.519h4.839c.219,0,.355-.027.41-.109a.568.568,0,0,0,.109-.41V4.511a.568.568,0,0,0-.109-.41.568.568,0,0,0-.41-.109H70.413c-.219,0-.355.027-.41.109A.738.738,0,0,0,69.893,4.511Z" transform="translate(-47.446 0)" fill="#1a1a1a"/>
    </g>
    <g id="Grupo_4516" data-name="Grupo 4516" transform="translate(162.02 -983.04)">
      <path id="Trazado_1913" data-name="Trazado 1913" d="M141.415,27.815a3.712,3.712,0,0,1-2.625.766,3.63,3.63,0,0,1-2.625-.766,3.544,3.544,0,0,1-.766-2.625,3.63,3.63,0,0,1,.766-2.625,3.713,3.713,0,0,1,2.625-.766,3.63,3.63,0,0,1,2.625.766,3.544,3.544,0,0,1,.766,2.625A3.587,3.587,0,0,1,141.415,27.815Z" transform="translate(-135.4 -21.8)" fill="#1a1a1a"/>
    </g>
    <g id="Grupo_4517" data-name="Grupo 4517" transform="translate(171.562 -989)">
      <path id="Trazado_1914" data-name="Trazado 1914" d="M182.33,15.284h-6.152l-1.121,4.1H170.3L176.178,0h6.343L188.4,19.385h-4.949Zm-1.039-3.91L179.268,3.8l-2.051,7.573Z" transform="translate(-170.3)" fill="#1a1a1a"/>
      <path id="Trazado_1915" data-name="Trazado 1915" d="M244.5,0h11.073c2.543,0,3.8,1.285,3.8,3.828V15.557c0,2.543-1.258,3.828-3.8,3.828H244.5Zm4.593,15.393h5.167a.452.452,0,0,0,.519-.519V4.511a.567.567,0,0,0-.109-.41.567.567,0,0,0-.41-.109h-5.167Z" transform="translate(-224.213)" fill="#1a1a1a"/>
      <path id="Trazado_1916" data-name="Trazado 1916" d="M322.843,0l-5.906,19.385H311.66L305.7,0h4.976l3.636,14.491L317.976,0Z" transform="translate(-268.68)" fill="#1a1a1a"/>
      <path id="Trazado_1917" data-name="Trazado 1917" d="M376.6,0h13.342V3.992h-8.749v3.5h7v3.937h-7v3.964h8.749v3.992H376.6Z" transform="translate(-320.196)" fill="#1a1a1a"/>
      <path id="Trazado_1918" data-name="Trazado 1918" d="M448.311,0h4.457V19.385H448.5l-7.245-12v12H436.8V0h4.675l6.835,11.374Z" transform="translate(-363.936)" fill="#1a1a1a"/>
      <path id="Trazado_1919" data-name="Trazado 1919" d="M519.082,4.019h-5.031V19.385h-4.593V4.019H504.4V0h14.682Z" transform="translate(-413.054)" fill="#1a1a1a"/>
      <path id="Trazado_1920" data-name="Trazado 1920" d="M577.437,19.385H570c-2.543,0-3.8-1.285-3.8-3.828V3.828C566.2,1.285,567.458,0,570,0h7.437a3.978,3.978,0,0,1,2.9.957,3.9,3.9,0,0,1,.93,2.871V15.557C581.265,18.1,580.007,19.385,577.437,19.385ZM570.793,4.511V14.873a.452.452,0,0,0,.519.519h4.839c.219,0,.355-.027.41-.109a.568.568,0,0,0,.109-.41V4.511a.568.568,0,0,0-.109-.41.568.568,0,0,0-.41-.109h-4.839c-.219,0-.355.027-.41.109A.738.738,0,0,0,570.793,4.511Z" transform="translate(-457.957 0)" fill="#1a1a1a"/>
      <path id="Trazado_1921" data-name="Trazado 1921" d="M648.364,0V15.557c0,2.543-1.285,3.828-3.828,3.828h-7.109c-2.543,0-3.828-1.285-3.828-3.828V0h4.593V14.791a.452.452,0,0,0,.519.519h4.511a.452.452,0,0,0,.52-.519V0Z" transform="translate(-506.929)" fill="#1a1a1a"/>
      <path id="Trazado_1922" data-name="Trazado 1922" d="M716.611,19.385h-4.785L708.573,11.4h-2.679v7.984H701.3V0h10.8c2.543,0,3.828,1.285,3.828,3.828V7.355c0,2.133-.875,3.39-2.652,3.718ZM705.893,7.6h4.894a.568.568,0,0,0,.41-.109.567.567,0,0,0,.109-.41V4.457a.567.567,0,0,0-.109-.41.568.568,0,0,0-.41-.109h-4.894Z" transform="translate(-556.119)" fill="#1a1a1a"/>
    </g>
    <g id="Grupo_4518" data-name="Grupo 4518" transform="translate(188.814 -945.282)">
      <path id="Trazado_1923" data-name="Trazado 1923" d="M245.138,161.256h-.027a.561.561,0,0,0-.574-.574h-.109V160.6h.738v.656Zm0,5.167v.684H244.4v-.082h.109a.561.561,0,0,0,.574-.574h.055Zm.6-5.824v6.507h-.629V160.6Zm.519,0a2.613,2.613,0,0,1,1.094.191,1.526,1.526,0,0,1,.684.547,1.328,1.328,0,0,1,.246.82,1.688,1.688,0,0,1-.137.684,1.3,1.3,0,0,1-.383.465,1.386,1.386,0,0,1-.492.246,2.115,2.115,0,0,1,.848.328,1.723,1.723,0,0,1,.547.629,1.688,1.688,0,0,1,.191.848,1.59,1.59,0,0,1-.246.9,1.48,1.48,0,0,1-.738.6,3.007,3.007,0,0,1-1.176.219h-1.039v-.328h.984a1.826,1.826,0,0,0,.82-.164,1.19,1.19,0,0,0,.519-.519,1.784,1.784,0,0,0,.164-.793,1.558,1.558,0,0,0-.191-.848,1.282,1.282,0,0,0-.519-.492,2,2,0,0,0-.684-.219,6.731,6.731,0,0,0-.711-.055v-.082a3.046,3.046,0,0,0,.465-.055,1.228,1.228,0,0,0,.492-.191.986.986,0,0,0,.41-.41,1.368,1.368,0,0,0,.164-.711,1.438,1.438,0,0,0-.164-.711.907.907,0,0,0-.465-.437,1.476,1.476,0,0,0-.738-.164h-.848a.212.212,0,0,0-.027-.082c-.027-.055-.027-.109-.082-.219h1.012Z" transform="translate(-244.4 -160.409)"/>
      <path id="Trazado_1924" data-name="Trazado 1924" d="M269.659,161.256l-.793-.027a1.274,1.274,0,0,0-.383-.383.986.986,0,0,0-.547-.164H267.8V160.6h2.3v.082h-.109a.3.3,0,0,0-.3.191A.385.385,0,0,0,269.659,161.256Zm-.328-.656,1.8,3.39-.41.328-2.215-3.718Zm1.367,5.824v.684h-.738V167h.109a.556.556,0,0,0,.41-.164.752.752,0,0,0,.219-.41Zm.574-2.324v2.98h-.6V164.1Zm1.64-3.5h.574l-2.3,3.691-.328-.109Zm-1.668,5.824h.027a.561.561,0,0,0,.574.574h.109v.082h-.738v-.656Zm1.312-5.167a.318.318,0,0,0,.055-.273.6.6,0,0,0-.137-.219.382.382,0,0,0-.246-.082h-.109V160.6h2.051v.082h-.137a.986.986,0,0,0-.547.164,1.839,1.839,0,0,0-.41.383Z" transform="translate(-261.402 -160.409)"/>
      <path id="Trazado_1925" data-name="Trazado 1925" d="M320.915,164.119v1.531a2.211,2.211,0,0,1-.574.547,3.781,3.781,0,0,1-.875.465,4.15,4.15,0,0,1-1.23.191,3.4,3.4,0,0,1-1.75-.437,3.037,3.037,0,0,1-1.176-1.176,3.632,3.632,0,0,1-.41-1.777,3.707,3.707,0,0,1,.41-1.777,2.865,2.865,0,0,1,1.176-1.176,3.6,3.6,0,0,1,1.75-.41,4.9,4.9,0,0,1,.93.082,4.735,4.735,0,0,1,.738.219,4.229,4.229,0,0,1,.6.328l.191,1.312h-.082a2.032,2.032,0,0,0-.465-.9,2.362,2.362,0,0,0-.793-.574,2.7,2.7,0,0,0-1.094-.191,2.5,2.5,0,0,0-1.367.383,2.623,2.623,0,0,0-.93,1.094,3.778,3.778,0,0,0-.328,1.613,3.818,3.818,0,0,0,.328,1.64,2.6,2.6,0,0,0,.93,1.094,2.57,2.57,0,0,0,1.367.383,2.529,2.529,0,0,0,.793-.109,3.188,3.188,0,0,0,.711-.273,3.068,3.068,0,0,0,.6-.437v-1.64c0-.273-.164-.41-.465-.41h-.137v-.082H321.6v.082h-.137C321.052,163.709,320.888,163.846,320.915,164.119Z" transform="translate(-295.625 -160.045)"/>
      <path id="Trazado_1926" data-name="Trazado 1926" d="M352.436,160.1a3.6,3.6,0,0,1,1.75.41,3.037,3.037,0,0,1,1.176,1.176,4.055,4.055,0,0,1,0,3.554,2.865,2.865,0,0,1-1.176,1.176,3.6,3.6,0,0,1-1.75.41,3.673,3.673,0,0,1-1.75-.41,3.037,3.037,0,0,1-1.176-1.176,4.055,4.055,0,0,1,0-3.554,2.865,2.865,0,0,1,1.176-1.176A3.6,3.6,0,0,1,352.436,160.1Zm0,6.48a2.5,2.5,0,0,0,1.367-.383,2.623,2.623,0,0,0,.93-1.094,3.818,3.818,0,0,0,.328-1.64,3.61,3.61,0,0,0-.328-1.613,2.6,2.6,0,0,0-.93-1.094,2.349,2.349,0,0,0-1.367-.383,2.5,2.5,0,0,0-1.367.383,2.623,2.623,0,0,0-.93,1.094,3.778,3.778,0,0,0-.328,1.613,3.818,3.818,0,0,0,.328,1.64,2.6,2.6,0,0,0,.93,1.094A2.349,2.349,0,0,0,352.436,166.58Z" transform="translate(-320.474 -160.045)"/>
      <path id="Trazado_1927" data-name="Trazado 1927" d="M398.322,165.988a.468.468,0,0,0-.027.328.289.289,0,0,0,.164.191.364.364,0,0,0,.219.082h.082v.082H396.9v-.109h.082a.907.907,0,0,0,.437-.137,1.013,1.013,0,0,0,.383-.437Zm2.023-5.96.082.656-2.324,5.96h-.547l2.379-5.66c.055-.164.137-.3.164-.41a1.538,1.538,0,0,0,.109-.328,1.387,1.387,0,0,0,.055-.246h.082Zm1.312,4.1v.273h-2.9v-.273Zm-1.312-4.1,2.761,6.589h-.793l-2.16-5.687Zm1.722,5.96h.766a.768.768,0,0,0,.383.437,1,1,0,0,0,.437.137h.082v.082h-2.078v-.082h.082a.473.473,0,0,0,.328-.164C402.177,166.288,402.122,166.179,402.067,165.988Z" transform="translate(-355.205 -159.973)"/>
      <path id="Trazado_1928" data-name="Trazado 1928" d="M431.038,161.256h-.027a.561.561,0,0,0-.574-.574h-.109V160.6h.738v.656Zm0,5.167v.684H430.3V167h.109a.556.556,0,0,0,.41-.164.719.719,0,0,0,.191-.41Zm.574-5.824v6.507h-.6V160.6Zm1.832,0a3.6,3.6,0,0,1,1.75.41,2.968,2.968,0,0,1,1.176,1.148,3.489,3.489,0,0,1,.41,1.723,3.312,3.312,0,0,1-.41,1.7,2.968,2.968,0,0,1-1.176,1.148,3.524,3.524,0,0,1-1.75.41h-2v-.273h2a2.667,2.667,0,0,0,1.394-.383,2.448,2.448,0,0,0,.93-1.039,3.865,3.865,0,0,0,0-3.117,2.449,2.449,0,0,0-.93-1.039,2.6,2.6,0,0,0-1.394-.383h-2.105v-.273h2.105Z" transform="translate(-379.473 -160.409)"/>
      <path id="Trazado_1929" data-name="Trazado 1929" d="M462.668,161.256H461.9a.768.768,0,0,0-.383-.437,1,1,0,0,0-.437-.137H461V160.6h2.078v.082H463a.439.439,0,0,0-.3.137C462.586,160.928,462.586,161.065,462.668,161.256Zm1.832,5.96-2.871-6.589h.793l2.269,5.687Zm0,0-.082-.656,2.461-5.96h.547l-2.515,5.66c-.055.164-.137.3-.164.41a1.54,1.54,0,0,0-.109.328c-.027.109-.055.191-.055.219Zm2.133-5.96a.473.473,0,0,0-.027-.437.368.368,0,0,0-.328-.137h-.082V160.6h1.859v.082h-.082a.959.959,0,0,0-.82.574Z" transform="translate(-401.779 -160.409)"/>
      <path id="Trazado_1930" data-name="Trazado 1930" d="M496.038,160.82h-.027a.561.561,0,0,0-.574-.574h-.109v-.082h.738v.656Zm0,5.167v.684H495.3v-.109h.109a.557.557,0,0,0,.41-.164.719.719,0,0,0,.191-.41Zm.574-5.824v6.507h-.6v-6.507Zm2.515,0v.3h-2.543v-.3Zm-.383,3.144v.273h-2.16v-.273Zm.383,3.062v.3h-2.543v-.3Zm.574-1.2-.547,1.5h-1.531l.328-.3a1.63,1.63,0,0,0,.793-.164,1.352,1.352,0,0,0,.519-.437,4.667,4.667,0,0,0,.355-.629h.082ZM499.128,160v.273l-1.121-.109a2.5,2.5,0,0,0,.437-.027c.164-.027.3-.027.41-.055A2.535,2.535,0,0,1,499.128,160Zm-.383,2.734v.6H498.2v-.027a.5.5,0,0,0,.328-.137.453.453,0,0,0,.137-.328v-.109Zm0,.848v.6h-.082v-.137a.5.5,0,0,0-.137-.328.453.453,0,0,0-.328-.137v-.027h.547Zm.383-3.172v.738h-.082v-.164a.561.561,0,0,0-.547-.547v-.027h.629Z" transform="translate(-426.702 -159.973)"/>
      <path id="Trazado_1931" data-name="Trazado 1931" d="M521.666,166.015v.656H520.9v-.109h.164a.561.561,0,0,0,.574-.574h.027Zm-.027-5.988.41.519v6.124h-.437v-5.5a10.206,10.206,0,0,0-.082-1.176h.109Zm0,0,5.414,5.769.082,1.012-5.413-5.742Zm.41,5.988a.561.561,0,0,0,.574.574h.164v.082h-.766v-.656Zm3.91-5.851h.765v.656H526.7a.561.561,0,0,0-.574-.574h-.164Zm1.176,0V165.6a4.037,4.037,0,0,0,.027.574,5.894,5.894,0,0,0,.055.629h-.082l-.41-.492v-6.152Zm.738,0v.082h-.164a.561.561,0,0,0-.574.574h-.027v-.656Z" transform="translate(-445.302 -159.973)"/>
      <path id="Trazado_1932" data-name="Trazado 1932" d="M555.4,159.9a1.7,1.7,0,0,0,.273.082,2.111,2.111,0,0,0,.41.055,2.5,2.5,0,0,0,.437.027l-1.121.109Zm5.386.164v.273H555.4v-.273Zm-4.757.273v.027a.5.5,0,0,0-.383.164.54.54,0,0,0-.164.383v.164H555.4v-.766h.629Zm1.777,5.578v.684h-.738v-.109h.109a.557.557,0,0,0,.41-.164.718.718,0,0,0,.191-.41Zm.574-5.8v6.48h-.6v-6.48Zm-.027,5.8h.027a.492.492,0,0,0,.191.41.557.557,0,0,0,.41.164h.109v.082h-.738Zm2.433-6.015v.273l-1.121-.109a2.5,2.5,0,0,0,.438-.027c.164-.027.3-.027.41-.055A1.7,1.7,0,0,0,560.786,159.9Zm0,.437v.766H560.7v-.164a.5.5,0,0,0-.164-.383.54.54,0,0,0-.383-.164v-.027h.629Z" transform="translate(-470.37 -159.9)"/>
      <path id="Trazado_1933" data-name="Trazado 1933" d="M587.336,160.1a3.6,3.6,0,0,1,1.75.41,3.037,3.037,0,0,1,1.176,1.176,4.055,4.055,0,0,1,0,3.554,2.866,2.866,0,0,1-1.176,1.176,3.6,3.6,0,0,1-1.75.41,3.673,3.673,0,0,1-1.75-.41,3.037,3.037,0,0,1-1.176-1.176,4.056,4.056,0,0,1,0-3.554,2.865,2.865,0,0,1,1.176-1.176A3.6,3.6,0,0,1,587.336,160.1Zm0,6.48a2.5,2.5,0,0,0,1.367-.383,2.622,2.622,0,0,0,.93-1.094,3.818,3.818,0,0,0,.328-1.64,3.61,3.61,0,0,0-.328-1.613,2.6,2.6,0,0,0-.93-1.094,2.349,2.349,0,0,0-1.367-.383,2.5,2.5,0,0,0-1.367.383,2.624,2.624,0,0,0-.93,1.094,3.779,3.779,0,0,0-.328,1.613,3.819,3.819,0,0,0,.328,1.64,2.6,2.6,0,0,0,.93,1.094A2.349,2.349,0,0,0,587.336,166.58Z" transform="translate(-491.15 -160.045)"/>
      <path id="Trazado_1934" data-name="Trazado 1934" d="M618.856,160.6v.547h-.027a.453.453,0,0,0-.137-.328.576.576,0,0,0-.355-.137H618.2V160.6Zm.574,0v4.1a2.658,2.658,0,0,0,.246,1.176,1.931,1.931,0,0,0,.684.793,1.844,1.844,0,0,0,1.039.273,2.1,2.1,0,0,0,1.094-.273,2.377,2.377,0,0,0,.738-.738,2.425,2.425,0,0,0,.273-1.121V160.6h.437v4.21a2.592,2.592,0,0,1-.3,1.258,2.176,2.176,0,0,1-.875.848,2.9,2.9,0,0,1-1.312.3,2.934,2.934,0,0,1-1.34-.3,2.246,2.246,0,0,1-.9-.848,2.4,2.4,0,0,1-.328-1.258V160.6Zm.629,0v.082h-.137a.576.576,0,0,0-.355.137.368.368,0,0,0-.137.328H619.4V160.6Zm3.445,0v.547h-.027a.453.453,0,0,0-.137-.328.576.576,0,0,0-.356-.137h-.137V160.6Zm1.039,0v.082h-.137a.576.576,0,0,0-.355.137.368.368,0,0,0-.137.328h-.027V160.6Z" transform="translate(-516 -160.409)"/>
      <path id="Trazado_1935" data-name="Trazado 1935" d="M652.238,161.111h-.027a.492.492,0,0,0-.191-.41.557.557,0,0,0-.41-.164H651.5v-.082h.738Zm0,5.167v.684H651.5v-.109h.109a.556.556,0,0,0,.41-.164.719.719,0,0,0,.191-.41Zm.574-5.824v6.507h-.6v-6.507Zm1.2,0a2.358,2.358,0,0,1,.766.109,1.561,1.561,0,0,1,.574.355,1.456,1.456,0,0,1,.355.547,2.086,2.086,0,0,1,.137.738,1.861,1.861,0,0,1-.219.848,1.672,1.672,0,0,1-.574.656,1.425,1.425,0,0,1-.793.246,1.377,1.377,0,0,1,.355.273,3.545,3.545,0,0,1,.328.383c.164.246.3.437.438.629.137.164.246.355.383.519s.246.3.328.41a4.532,4.532,0,0,0,.383.355,1.262,1.262,0,0,0,.41.246,1.325,1.325,0,0,0,.492.082v.082h-.547a2.088,2.088,0,0,1-.738-.137,1.412,1.412,0,0,1-.52-.328,4.317,4.317,0,0,1-.355-.355c-.027-.027-.082-.109-.164-.219s-.191-.246-.3-.41l-.328-.492c-.109-.164-.219-.3-.3-.41s-.137-.191-.137-.191a2.927,2.927,0,0,0-.383-.437.64.64,0,0,0-.465-.191v-.082h.492a1.859,1.859,0,0,0,.519-.082,1.471,1.471,0,0,0,.547-.273,1.3,1.3,0,0,0,.383-.629c.027-.055.027-.164.055-.246a1.105,1.105,0,0,0,0-.3,1.5,1.5,0,0,0-.328-1.012,1.192,1.192,0,0,0-.82-.41c-.164,0-.355-.027-.547-.027h-.656a.211.211,0,0,0-.027-.082c-.027-.055-.027-.109-.082-.219h1.34Zm-1.23,5.824h.027a.561.561,0,0,0,.574.574h.109v.082h-.738v-.656Z" transform="translate(-540.195 -160.263)"/>
      <path id="Trazado_1936" data-name="Trazado 1936" d="M699.39,160.1l.082.355-2.789,3.445h3.2a.951.951,0,0,0,.356-.055.727.727,0,0,0,.164-.137h.082l-.191.684H696v-.082Zm.082,6.042a.481.481,0,0,0,.164.355.453.453,0,0,0,.355.137h.109v.082h-1.832v-.082h.082a.52.52,0,0,0,.355-.137.481.481,0,0,0,.164-.355Zm-.6-5.113.519-.93h.082v6.617h-.6Z" transform="translate(-572.528 -160.045)"/>
      <path id="Trazado_1937" data-name="Trazado 1937" d="M722.4,166.424a.318.318,0,0,0-.055.273.6.6,0,0,0,.137.219.364.364,0,0,0,.219.082h.109v.082H720.7V167h.137a.986.986,0,0,0,.547-.164,1.84,1.84,0,0,0,.41-.383Zm.738-5.824v.082h-.109a.31.31,0,0,0-.219.082.376.376,0,0,0-.137.219.337.337,0,0,0,.055.273l-.738-.027a1.7,1.7,0,0,0-.383-.383.986.986,0,0,0-.547-.164h-.137V160.6Zm.574,3.035.219.41-1.941,3.062h-.6Zm-1.422-3.035,4.129,6.507h-.738l-4.129-6.507Zm3.992,0-2.187,3.226-.328-.219,1.886-2.98h.629Zm.629,0v.082h-.137a.986.986,0,0,0-.547.164,1.836,1.836,0,0,0-.41.383l-.6.027a.318.318,0,0,0,.055-.273.376.376,0,0,0-.137-.219.382.382,0,0,0-.246-.082h-.109V160.6Zm-1.64,5.824.766.027a1.393,1.393,0,0,0,.41.383.986.986,0,0,0,.547.164h.137v.082h-2.269V167h.109a.357.357,0,0,0,.328-.191A.627.627,0,0,0,725.266,166.424Z" transform="translate(-590.475 -160.409)"/>
      <path id="Trazado_1938" data-name="Trazado 1938" d="M755.29,160.1l.082.355-2.789,3.445h3.2a.95.95,0,0,0,.355-.055.723.723,0,0,0,.164-.137h.082l-.191.684H751.9v-.082Zm.082,6.042a.481.481,0,0,0,.164.355.453.453,0,0,0,.356.137H756v.082h-1.832v-.082h.082a.52.52,0,0,0,.355-.137.481.481,0,0,0,.164-.355Zm-.6-5.113.519-.93h.082v6.617h-.6Z" transform="translate(-613.145 -160.045)"/>
    </g>
  </g>
</svg>
