<svg id="icon-play-store" xmlns="http://www.w3.org/2000/svg" xmlns:xlink="http://www.w3.org/1999/xlink" width="135" height="40" viewBox="0 0 135 40">
  <defs>
    <clipPath id="clip-path">
      <rect id="Rectángulo_185" data-name="Rectángulo 185" width="135" height="40" fill="none"/>
    </clipPath>
  </defs>
  <g id="Grupo_4605" data-name="Grupo 4605" transform="translate(0 0)" clip-path="url(#clip-path)">
    <g id="Grupo_4603" data-name="Grupo 4603" transform="translate(0 0)">
      <g id="Grupo_4602" data-name="Grupo 4602" clip-path="url(#clip-path)">
        <path id="Trazado_2054" data-name="Trazado 2054" d="M130,69.3H5a5.015,5.015,0,0,1-5-5v-30a5.015,5.015,0,0,1,5-5H130a5.015,5.015,0,0,1,5,5v30a5.015,5.015,0,0,1-5,5" transform="translate(0 -29.296)" fill="#060704"/>
        <path id="Trazado_2055" data-name="Trazado 2055" d="M130,30.1a4.2,4.2,0,0,1,4.2,4.2v30a4.2,4.2,0,0,1-4.2,4.2H5A4.2,4.2,0,0,1,.8,64.3v-30A4.2,4.2,0,0,1,5,30.1Zm0-.8H5a5.015,5.015,0,0,0-5,5v30a5.015,5.015,0,0,0,5,5H130a5.015,5.015,0,0,0,5-5v-30a5.015,5.015,0,0,0-5-5" transform="translate(0 -29.297)" fill="#9f9b99"/>
        <path id="Trazado_2056" data-name="Trazado 2056" d="M223.488,115.574a4.254,4.254,0,1,0,4.269,4.254,4.193,4.193,0,0,0-4.269-4.254m0,6.831a2.584,2.584,0,1,1,2.4-2.577,2.46,2.46,0,0,1-2.4,2.577m-9.314-6.831a4.254,4.254,0,1,0,4.27,4.254,4.193,4.193,0,0,0-4.27-4.254m0,6.831a2.584,2.584,0,1,1,2.4-2.577,2.46,2.46,0,0,1-2.4,2.577M203.1,116.88v1.8h4.317a3.765,3.765,0,0,1-.982,2.271,4.42,4.42,0,0,1-3.335,1.321,4.8,4.8,0,0,1,0-9.6,4.6,4.6,0,0,1,3.254,1.288l1.273-1.272a6.3,6.3,0,0,0-4.527-1.821,6.606,6.606,0,1,0,0,13.211,6.039,6.039,0,0,0,4.607-1.853,5.962,5.962,0,0,0,1.563-4.221,5.829,5.829,0,0,0-.1-1.127Zm45.308,1.4a3.954,3.954,0,0,0-3.641-2.707,4.042,4.042,0,0,0-4.011,4.254,4.162,4.162,0,0,0,4.22,4.253,4.232,4.232,0,0,0,3.545-1.885l-1.45-.967a2.43,2.43,0,0,1-2.095,1.176,2.165,2.165,0,0,1-2.062-1.288l5.687-2.353Zm-5.8,1.418a2.333,2.333,0,0,1,2.223-2.481,1.645,1.645,0,0,1,1.579.9Zm-4.624,4.124h1.869v-12.5H237.98Zm-3.061-7.3h-.064a2.948,2.948,0,0,0-2.239-.951,4.257,4.257,0,0,0,0,8.507,2.9,2.9,0,0,0,2.239-.967h.064v.612c0,1.628-.869,2.5-2.271,2.5a2.353,2.353,0,0,1-2.143-1.514l-1.627.677a4.053,4.053,0,0,0,3.77,2.513c2.191,0,4.044-1.289,4.044-4.43v-7.637h-1.773Zm-2.142,5.88a2.587,2.587,0,0,1,0-5.155,2.6,2.6,0,0,1,0,5.155m24.381-11.083h-4.471v12.5h1.865v-4.736h2.606a3.888,3.888,0,1,0,0-7.765m.048,6.025h-2.654v-4.286h2.654a2.143,2.143,0,1,1,0,4.286m11.532-1.795a3.505,3.505,0,0,0-3.33,1.913l1.657.692a1.768,1.768,0,0,1,1.705-.917,1.8,1.8,0,0,1,1.962,1.608v.129a4.133,4.133,0,0,0-1.946-.482c-1.785,0-3.6.981-3.6,2.814a2.888,2.888,0,0,0,3.1,2.75,2.632,2.632,0,0,0,2.381-1.222h.064v.965h1.8v-4.793c0-2.219-1.656-3.457-3.8-3.457m-.225,6.851c-.612,0-1.464-.306-1.464-1.062,0-.965,1.061-1.334,1.978-1.334a3.33,3.33,0,0,1,1.705.418,2.262,2.262,0,0,1-2.219,1.978m10.582-6.578-2.139,5.42h-.064l-2.22-5.42h-2.01l3.329,7.575-1.9,4.214h1.946l5.131-11.789Zm-16.807,8h1.866v-12.5h-1.866Z" transform="translate(-155.352 -93.823)" fill="#fff"/>
        <path id="Trazado_2057" data-name="Trazado 2057" d="M58.835,122.244l-10.647,11.3s0,.005,0,.007a2.878,2.878,0,0,0,4.236,1.734l.034-.02,11.984-6.915Z" transform="translate(-38.118 -102.82)" fill="#d9321e"/>
        <path id="Trazado_2058" data-name="Trazado 2058" d="M108.99,101.658l-.01-.007-5.174-3-5.829,5.187,5.85,5.848,5.146-2.969a2.878,2.878,0,0,0,.017-5.06" transform="translate(-77.502 -84.158)" fill="#fdb200"/>
        <path id="Trazado_2059" data-name="Trazado 2059" d="M47.816,73.689a2.825,2.825,0,0,0-.1.74V94.4a2.77,2.77,0,0,0,.1.739L58.829,84.125Z" transform="translate(-37.746 -64.412)" fill="#456eaf"/>
        <path id="Trazado_2060" data-name="Trazado 2060" d="M58.912,76.327l5.51-5.509-11.97-6.94A2.881,2.881,0,0,0,48.187,65.6s0,0,0,0Z" transform="translate(-38.116 -56.326)" fill="#449231"/>
      </g>
    </g>
    <g id="Grupo_4604" data-name="Grupo 4604" transform="translate(41.784 6.765)">
      <path id="Trazado_2061" data-name="Trazado 2061" d="M199.944,62.334h1.992a3.459,3.459,0,0,1,1.683.392,2.71,2.71,0,0,1,1.1,1.1,3.593,3.593,0,0,1,0,3.245,2.709,2.709,0,0,1-1.1,1.1,3.461,3.461,0,0,1-1.683.391h-1.992Zm1.966,5.325a2.228,2.228,0,0,0,1.649-.587,2.535,2.535,0,0,0,0-3.245,2.229,2.229,0,0,0-1.649-.587H200.9v4.42Z" transform="translate(-199.944 -62.195)" fill="#fff"/>
      <path id="Trazado_2062" data-name="Trazado 2062" d="M230.667,62.334h3.776v.9h-2.819V65h2.54v.9h-2.54v1.757h2.819v.9h-3.776Z" transform="translate(-224.247 -62.195)" fill="#fff"/>
      <path id="Trazado_2063" data-name="Trazado 2063" d="M253.51,67.723a2.349,2.349,0,0,1-.861-1.27l.9-.365a1.745,1.745,0,0,0,.5.852,1.22,1.22,0,0,0,.861.331,1.292,1.292,0,0,0,.8-.244.79.79,0,0,0,.326-.67.832.832,0,0,0-.287-.648,3.034,3.034,0,0,0-.992-.5l-.391-.139a2.917,2.917,0,0,1-1.057-.631,1.42,1.42,0,0,1-.422-1.075,1.562,1.562,0,0,1,.248-.852,1.719,1.719,0,0,1,.7-.618,2.217,2.217,0,0,1,1.014-.226,1.994,1.994,0,0,1,1.3.4,2.017,2.017,0,0,1,.661.892l-.861.365a1.05,1.05,0,0,0-.365-.539,1.109,1.109,0,0,0-.722-.226,1.153,1.153,0,0,0-.722.226.694.694,0,0,0-.3.574.659.659,0,0,0,.265.535,2.8,2.8,0,0,0,.822.4l.4.139a3.156,3.156,0,0,1,1.235.722,1.617,1.617,0,0,1,.435,1.183,1.658,1.658,0,0,1-.309,1.022,1.859,1.859,0,0,1-.792.613,2.559,2.559,0,0,1-.987.2A2.3,2.3,0,0,1,253.51,67.723Z" transform="translate(-241.635 -61.668)" fill="#fff"/>
      <path id="Trazado_2064" data-name="Trazado 2064" d="M279.1,67.749a3.093,3.093,0,0,1-1.17-1.174,3.418,3.418,0,0,1,0-3.306,3.1,3.1,0,0,1,1.17-1.174,3.258,3.258,0,0,1,1.648-.426,2.948,2.948,0,0,1,2.306,1.018l-.67.652a2.182,2.182,0,0,0-.718-.574,2.067,2.067,0,0,0-.909-.191,2.332,2.332,0,0,0-1.157.292,2.138,2.138,0,0,0-.827.826,2.641,2.641,0,0,0,0,2.462,2.137,2.137,0,0,0,.827.827,2.332,2.332,0,0,0,1.157.292,2.223,2.223,0,0,0,1.784-.879l.687.661a3.172,3.172,0,0,1-1.087.826,3.411,3.411,0,0,1-3.041-.131Z" transform="translate(-261.293 -61.668)" fill="#fff"/>
      <path id="Trazado_2065" data-name="Trazado 2065" d="M310.157,62.334h1.087l2.358,6.229h-1.053l-.574-1.6h-2.54l-.574,1.6h-1.053Zm1.505,3.741-.7-1.909-.235-.713h-.052l-.235.713-.7,1.909Z" transform="translate(-285.267 -62.195)" fill="#fff"/>
      <path id="Trazado_2066" data-name="Trazado 2066" d="M340.031,62.334h2.184a2.138,2.138,0,0,1,1.022.244,1.84,1.84,0,0,1,.988,1.662,1.678,1.678,0,0,1-.4,1.109,1.963,1.963,0,0,1-1.014.648l-.009.043,1.714,2.471v.052h-1.1l-1.662-2.445h-.757v2.445h-.957Zm2.158,2.906a1.077,1.077,0,0,0,.761-.287.945.945,0,0,0,.309-.722,1,1,0,0,0-1.035-1h-1.236v2.01Z" transform="translate(-310.756 -62.195)" fill="#fff"/>
      <path id="Trazado_2067" data-name="Trazado 2067" d="M365.97,67.749a3.257,3.257,0,0,1,0-5.655,3.249,3.249,0,0,1,1.636-.426,3.356,3.356,0,0,1,1.314.252,2.889,2.889,0,0,1,1.018.7l-.661.661a2.129,2.129,0,0,0-1.67-.713,2.329,2.329,0,0,0-1.14.292,2.17,2.17,0,0,0-.844.831,2.4,2.4,0,0,0-.313,1.227,2.368,2.368,0,0,0,.317,1.231,2.22,2.22,0,0,0,.844.827,2.322,2.322,0,0,0,1.144.292,2.165,2.165,0,0,0,1.6-.618,1.559,1.559,0,0,0,.335-.487,2.4,2.4,0,0,0,.187-.652H367.6V64.67h3.027a2.961,2.961,0,0,1,.052.5,3.393,3.393,0,0,1-.187,1.127,2.587,2.587,0,0,1-.579.944,2.781,2.781,0,0,1-1,.692,3.412,3.412,0,0,1-1.3.239A3.247,3.247,0,0,1,365.97,67.749Z" transform="translate(-329.987 -61.668)" fill="#fff"/>
      <path id="Trazado_2068" data-name="Trazado 2068" d="M399.04,62.334h1.087l2.358,6.229h-1.053l-.574-1.6h-2.54l-.574,1.6h-1.053Zm1.505,3.741-.7-1.909-.235-.713h-.052l-.235.713-.7,1.909Z" transform="translate(-355.575 -62.195)" fill="#fff"/>
      <path id="Trazado_2069" data-name="Trazado 2069" d="M428.913,62.334H431.1a2.138,2.138,0,0,1,1.022.244,1.84,1.84,0,0,1,.988,1.662,1.678,1.678,0,0,1-.4,1.109,1.963,1.963,0,0,1-1.014.648l-.009.043,1.714,2.471v.052h-1.105l-1.662-2.445h-.757v2.445h-.957Zm2.158,2.906a1.077,1.077,0,0,0,.761-.287.945.945,0,0,0,.309-.722,1,1,0,0,0-1.035-1H429.87v2.01Z" transform="translate(-381.064 -62.195)" fill="#fff"/>
      <path id="Trazado_2070" data-name="Trazado 2070" d="M464.007,62.334h3.776v.9h-2.819V65h2.54v.9h-2.54v1.757h2.819v.9h-3.776Z" transform="translate(-408.824 -62.195)" fill="#fff"/>
      <path id="Trazado_2071" data-name="Trazado 2071" d="M488.485,62.334h1.131l2.819,4.576h.052l-.052-1.2V62.334h.948v6.229h-.992l-2.958-4.811h-.052l.052,1.2v3.611h-.949Z" transform="translate(-428.186 -62.195)" fill="#fff"/>
    </g>
  </g>
</svg>
